<svg version="1.1" id="Layer_1" xmlns="http://www.w3.org/2000/svg" xmlns:xlink="http://www.w3.org/1999/xlink" x="0px" y="0px"
	 width="100%" viewBox="0 0 499 499" enable-background="new 0 0 499 499" xml:space="preserve">
<path fill="#9BC87A" opacity="1.000000" stroke="none" 
	d="
M334.000000,500.000000 
	C278.645782,500.000000 223.291550,500.000000 167.481323,499.531494 
	C167.026886,446.208862 167.039658,393.354736 166.983200,340.500702 
	C166.981247,338.661957 166.288925,336.823944 165.963379,334.993347 
	C166.008392,335.001129 165.994812,335.091431 165.900757,334.786987 
	C165.213043,334.269745 164.619400,334.056946 163.824127,333.541382 
	C160.460968,333.157440 157.299438,333.006348 154.137894,333.005524 
	C103.091927,332.992371 52.045963,332.998383 1.000000,333.000000 
	C1.000000,277.979095 1.000000,222.958206 1.468544,167.480347 
	C56.802895,167.023361 111.668701,167.023361 167.000000,167.023361 
	C167.000000,111.154472 167.000000,56.077236 167.000000,1.000000 
	C222.354233,1.000000 277.708466,1.000000 333.516113,1.468466 
	C333.966644,16.082315 333.963348,30.227701 333.960907,44.373085 
	C333.954102,83.647667 333.955658,122.922249 333.924500,162.196808 
	C333.922241,165.046829 333.770050,167.821075 338.473267,166.930359 
	C377.328186,166.996109 415.718018,167.003448 454.568909,167.001221 
	C461.038391,166.707672 467.046875,166.423676 473.327271,166.456528 
	C482.399475,166.848907 491.199738,166.924454 500.000000,167.000000 
	C500.000000,222.687561 500.000000,278.375122 499.676208,334.530670 
	C498.587860,334.666687 497.823334,334.334717 496.586548,333.988281 
	C484.723206,333.982574 473.332153,333.991364 461.567383,334.010376 
	C456.457916,334.296448 451.722107,334.572327 446.717957,334.520996 
	C424.276489,334.127686 402.103424,334.061615 379.480255,334.000854 
	C366.998932,334.289032 354.967712,334.571899 342.684662,334.554749 
	C339.953522,334.531128 337.474152,334.807587 334.993286,335.038269 
	C334.991730,334.992523 335.083099,334.985962 334.718384,335.214478 
	C334.273438,350.628235 334.193237,365.813538 334.055969,381.464478 
	C333.999268,421.286774 333.999634,460.643402 334.000000,500.000000 
M221.996368,352.014160 
	C221.955200,366.301544 221.429428,380.608582 222.009018,394.870758 
	C222.589844,409.164093 235.451874,420.590240 249.971008,420.857330 
	C264.282257,421.120605 277.987549,410.258362 278.766144,396.430786 
	C279.614288,381.367859 278.875702,366.215637 279.070465,350.176239 
	C279.080811,336.052551 279.320404,321.924255 279.036530,307.806488 
	C278.756744,293.893555 265.573822,281.613342 251.026855,281.173035 
	C237.506546,280.763794 222.794083,292.621643 222.168320,305.757996 
	C221.450043,320.836090 222.068558,335.977875 221.996368,352.014160 
M350.310669,221.948334 
	C335.359222,221.979141 320.373169,221.392868 305.466797,222.228012 
	C292.596680,222.949066 281.235535,236.965424 281.163269,250.383224 
	C281.090485,263.896851 292.813080,278.250977 305.733673,278.835388 
	C320.830353,279.518219 335.985748,278.902008 352.032074,278.983002 
	C365.986694,279.038727 379.949341,279.413818 393.893738,279.062988 
	C408.714600,278.690186 420.531006,266.054932 420.850555,251.031189 
	C421.162872,236.347183 409.966400,222.840836 395.446442,222.104568 
	C380.705536,221.357086 365.891968,222.043137 350.310669,221.948334 
M150.802185,279.068634 
	C164.634155,279.100769 178.469757,279.344086 192.297119,279.107178 
	C206.905334,278.856903 219.125107,266.277588 219.798935,251.312729 
	C220.435501,237.174866 208.561157,222.798630 194.369904,222.115631 
	C179.582611,221.403915 164.729507,222.059830 148.983475,222.003448 
	C134.537399,221.982681 120.063660,221.396286 105.653091,222.101273 
	C91.427864,222.797211 80.440605,235.481888 80.188202,249.932037 
	C79.936356,264.349884 90.543877,277.900726 104.549553,278.767273 
	C119.602867,279.698639 134.765533,278.862579 150.802185,279.068634 
M221.915970,150.821579 
	C221.904907,164.951187 221.638931,179.086517 221.954819,193.208801 
	C222.267288,207.179001 235.505463,219.439850 250.017639,219.797958 
	C263.647156,220.134293 278.162292,208.452682 278.805847,195.227570 
	C279.539398,180.151794 278.868286,165.007675 278.979553,148.980865 
	C279.048615,135.186188 279.372345,121.386803 279.117767,107.598099 
	C278.842377,92.679253 266.586304,80.786125 251.506119,80.199951 
	C236.519012,79.617393 222.926208,90.690346 222.136612,105.571732 
	C221.354965,120.302948 222.069916,135.113571 221.915970,150.821579 
z"/>
<path fill="#EBFFDE" opacity="1.000000" stroke="none" 
	d="
M1.000000,166.250000 
	C55.759598,166.000000 110.519196,166.000000 165.999008,166.000000 
	C165.999008,111.273659 165.999008,56.605484 165.999512,1.468657 
	C166.000000,1.000000 166.500000,1.000000 166.750000,1.000000 
	C167.000000,56.077236 167.000000,111.154472 167.000000,167.023361 
	C111.668701,167.023361 56.802895,167.023361 1.468544,167.011688 
	C1.000000,167.000000 1.000000,166.500000 1.000000,166.250000 
z"/>
<path fill="#E9FFD8" opacity="1.000000" stroke="none" 
	d="
M334.750000,1.000000 
	C335.002625,54.395615 334.985748,107.791275 335.102966,161.186630 
	C335.106445,162.776489 333.205322,165.817444 337.567413,166.268005 
	C338.007080,166.521255 338.008148,166.871948 338.008148,166.871948 
	C333.770050,167.821075 333.922241,165.046829 333.924500,162.196808 
	C333.955658,122.922249 333.954102,83.647667 333.960907,44.373085 
	C333.963348,30.227701 333.966644,16.082315 333.984802,1.468466 
	C334.000000,1.000000 334.500000,1.000000 334.750000,1.000000 
z"/>
<path fill="#E3FFDF" opacity="1.000000" stroke="none" 
	d="
M166.250000,500.000000 
	C165.996155,445.308411 165.992310,390.616791 165.953430,335.455383 
	C166.288925,336.823944 166.981247,338.661957 166.983200,340.500702 
	C167.039658,393.354736 167.026886,446.208862 167.012665,499.531494 
	C167.000000,500.000000 166.500000,500.000000 166.250000,500.000000 
z"/>
<path fill="#E4FFE1" opacity="1.000000" stroke="none" 
	d="
M334.833954,381.001953 
	C334.889771,418.362732 334.945770,455.723480 335.001007,493.084259 
	C335.003967,495.077057 335.000641,497.069885 335.000122,499.531342 
	C335.000000,500.000000 334.500000,500.000000 334.250000,500.000000 
	C333.999634,460.643402 333.999268,421.286774 334.235962,381.465759 
	C334.473022,381.001373 334.833954,381.001953 334.833954,381.001953 
z"/>
<path fill="#E6FFDE" opacity="1.000000" stroke="none" 
	d="
M473.327271,166.456543 
	C481.724457,166.095169 490.393555,166.050629 499.531342,166.003052 
	C500.000000,166.000000 500.000000,166.500000 500.000000,166.750000 
	C491.199738,166.924454 482.399475,166.848907 473.327271,166.456543 
z"/>
<path fill="#E00411" opacity="1.000000" stroke="none" 
	d="
M222.128433,149.889374 
	C222.069916,135.113571 221.354965,120.302948 222.136612,105.571732 
	C222.926208,90.690346 236.519012,79.617393 251.506119,80.199951 
	C266.586304,80.786125 278.842377,92.679253 279.117767,107.598099 
	C279.372345,121.386803 279.048615,135.186188 278.446167,149.433395 
	C259.317993,149.887070 240.723206,149.888229 222.128433,149.889374 
z"/>
<path fill="#E00411" opacity="1.000000" stroke="none" 
	d="
M149.880478,278.797699 
	C134.765533,278.862579 119.602867,279.698639 104.549553,278.767273 
	C90.543877,277.900726 79.936356,264.349884 80.188202,249.932037 
	C80.440605,235.481888 91.427864,222.797211 105.653091,222.101273 
	C120.063660,221.396286 134.537399,221.982681 149.442902,222.516129 
	C149.895035,241.618439 149.887756,260.208069 149.880478,278.797699 
z"/>
<path fill="#E00411" opacity="1.000000" stroke="none" 
	d="
M351.110199,222.101395 
	C365.891968,222.043137 380.705536,221.357086 395.446442,222.104568 
	C409.966400,222.840836 421.162872,236.347183 420.850555,251.031189 
	C420.531006,266.054932 408.714600,278.690186 393.893738,279.062988 
	C379.949341,279.413818 365.986694,279.038727 351.581543,278.464539 
	C351.124054,259.331207 351.117126,240.716293 351.110199,222.101395 
z"/>
<path fill="#E00411" opacity="1.000000" stroke="none" 
	d="
M278.828827,351.102325 
	C278.875702,366.215637 279.614288,381.367859 278.766144,396.430786 
	C277.987549,410.258362 264.282257,421.120605 249.971008,420.857330 
	C235.451874,420.590240 222.589844,409.164093 222.009018,394.870758 
	C221.429428,380.608582 221.955200,366.301544 222.508148,351.557434 
	C241.622910,351.101257 260.225861,351.101776 278.828827,351.102325 
z"/>
<path fill="#FEFEFD" opacity="1.000000" stroke="none" 
	d="
M350.710449,222.024872 
	C351.117126,240.716293 351.124054,259.331207 351.123352,278.397766 
	C335.985748,278.902008 320.830353,279.518219 305.733673,278.835388 
	C292.813080,278.250977 281.090485,263.896851 281.163269,250.383224 
	C281.235535,236.965424 292.596680,222.949066 305.466797,222.228012 
	C320.373169,221.392868 335.359222,221.979141 350.710449,222.024872 
z"/>
<path fill="#FEFEFD" opacity="1.000000" stroke="none" 
	d="
M222.022202,150.355469 
	C240.723206,149.888229 259.317993,149.887070 278.360199,149.889587 
	C278.868286,165.007675 279.539398,180.151794 278.805847,195.227570 
	C278.162292,208.452682 263.647156,220.134293 250.017639,219.797958 
	C235.505463,219.439850 222.267288,207.179001 221.954819,193.208801 
	C221.638931,179.086517 221.904907,164.951187 222.022202,150.355469 
z"/>
<path fill="#FEFEFC" opacity="1.000000" stroke="none" 
	d="
M278.949646,350.639282 
	C260.225861,351.101776 241.622910,351.101257 222.563156,351.096375 
	C222.068558,335.977875 221.450043,320.836090 222.168320,305.757996 
	C222.794083,292.621643 237.506546,280.763794 251.026855,281.173035 
	C265.573822,281.613342 278.756744,293.893555 279.036530,307.806488 
	C279.320404,321.924255 279.080811,336.052551 278.949646,350.639282 
z"/>
<path fill="#FEFEFD" opacity="1.000000" stroke="none" 
	d="
M150.341339,278.933167 
	C149.887756,260.208069 149.895035,241.618439 149.903748,222.573303 
	C164.729507,222.059830 179.582611,221.403915 194.369904,222.115631 
	C208.561157,222.798630 220.435501,237.174866 219.798935,251.312729 
	C219.125107,266.277588 206.905334,278.856903 192.297119,279.107178 
	C178.469757,279.344086 164.634155,279.100769 150.341339,278.933167 
z"/>
<path fill="#EFFFE2" opacity="1.000000" stroke="none" 
	d="
M338.473267,166.930359 
	C338.008148,166.871948 338.007080,166.521255 338.006622,166.345917 
	C376.579742,166.179993 415.153290,166.189423 453.917358,166.604813 
	C415.718018,167.003448 377.328186,166.996109 338.473267,166.930359 
z"/>
<path fill="#FFFFF7" opacity="1.000000" stroke="none" 
	d="
M446.717957,334.520996 
	C424.759308,334.833008 402.532257,334.817810 380.117798,334.399109 
	C402.103424,334.061615 424.276489,334.127686 446.717957,334.520996 
z"/>
<path fill="#E9FFD6" opacity="1.000000" stroke="none" 
	d="
M334.908325,380.538391 
	C334.833954,381.001953 334.473022,381.001373 334.293030,381.000092 
	C334.193237,365.813538 334.273438,350.628235 334.718384,335.214478 
	C335.049622,350.015564 335.016144,365.045197 334.908325,380.538391 
z"/>
<path fill="#FFFFFF" opacity="1.000000" stroke="none" 
	d="
M496.586548,333.988281 
	C496.407135,334.334015 495.755402,334.953827 495.103821,334.953613 
	C484.174194,334.950012 473.244537,334.869019 462.127991,334.402710 
	C473.332153,333.991364 484.723206,333.982574 496.586548,333.988281 
z"/>
<path fill="#E9FFD6" opacity="1.000000" stroke="none" 
	d="
M342.684662,334.554749 
	C340.583649,334.908661 338.230865,334.962555 335.436432,335.050232 
	C337.474152,334.807587 339.953522,334.531128 342.684662,334.554749 
z"/>
<path fill="#E3FFDF" opacity="1.000000" stroke="none" 
	d="
M161.493378,334.926941 
	C161.850754,334.563507 162.611923,334.267151 163.699432,333.907471 
	C164.619400,334.056946 165.213043,334.269745 165.900757,334.786987 
	C164.628937,335.058960 163.263062,335.026520 161.493378,334.926941 
z"/>
</svg>